<svg width="16" height="16" viewBox="0 0 16 16" fill="none" xmlns="http://www.w3.org/2000/svg">
<path d="M2.85339 1.02669L8.00005 6.17335L13.1201 1.05335C13.2331 0.932977 13.3694 0.83668 13.5206 0.770237C13.6718 0.703793 13.8349 0.668573 14.0001 0.666687C14.3537 0.666687 14.6928 0.807163 14.9429 1.05721C15.1929 1.30726 15.3334 1.6464 15.3334 2.00002C15.3365 2.16349 15.3062 2.32587 15.2443 2.4772C15.1824 2.62852 15.0902 2.7656 14.9734 2.88002L9.78672 8.00002L14.9734 13.1867C15.1931 13.4017 15.322 13.6928 15.3334 14C15.3334 14.3536 15.1929 14.6928 14.9429 14.9428C14.6928 15.1929 14.3537 15.3334 14.0001 15.3334C13.8301 15.3404 13.6606 15.312 13.5022 15.2501C13.3438 15.1881 13.2001 15.0939 13.0801 14.9734L8.00005 9.82669L2.86672 14.96C2.75406 15.0764 2.61947 15.1693 2.47072 15.2334C2.32197 15.2974 2.16201 15.3314 2.00005 15.3334C1.64643 15.3334 1.30729 15.1929 1.05725 14.9428C0.807197 14.6928 0.666721 14.3536 0.666721 14C0.663612 13.8366 0.693941 13.6742 0.755847 13.5228C0.817753 13.3715 0.90993 13.2344 1.02672 13.12L6.21339 8.00002L1.02672 2.81335C0.806967 2.59837 0.678107 2.30724 0.666721 2.00002C0.666721 1.6464 0.807197 1.30726 1.05725 1.05721C1.30729 0.807163 1.64643 0.666687 2.00005 0.666687C2.32005 0.670687 2.62672 0.80002 2.85339 1.02669Z" fill="#181818"/>
</svg>
